
<svg width="127" height="36" viewBox="0 0 127 36" fill="none" xmlns="http://www.w3.org/2000/svg">
<g>
	<path class="st0" d="M10.7,53.4l7-8.8c3.4,3,6.7,5.2,9.9,6.5c3.2,1.4,6.5,2.1,10.1,2.1c3.7,0,6.6-0.7,8.8-2
		c2.2-1.3,3.3-3.1,3.3-5.4c0-2-0.7-3.6-2.2-4.7c-1.5-1.1-4-2-7.5-2.5l-11.7-2c-5.1-0.8-8.9-2.6-11.5-5.3c-2.6-2.7-3.9-6.2-3.9-10.5
		c0-5.5,2.1-9.9,6.3-13.1c4.2-3.2,9.8-4.8,17-4.8c4.3,0,8.6,0.7,12.9,2.2c4.4,1.5,8.2,3.5,11.4,6.1L54,20.2
		c-3.1-2.4-6.2-4.2-9.3-5.4c-3-1.2-6.2-1.7-9.4-1.7c-3.3,0-5.9,0.6-7.8,1.8c-2,1.2-3,2.8-3,4.8c0,1.8,0.6,3.2,1.9,4.2
		c1.3,1,3.5,1.7,6.5,2.2l11.1,1.9c5.8,1,10.2,2.8,13.2,5.6c3,2.8,4.4,6.5,4.4,11c0,5.7-2.3,10.3-6.8,13.7
		c-4.5,3.4-10.6,5.1-18.1,5.1c-4.7,0-9.4-0.9-14-2.7C18.3,59.1,14.3,56.6,10.7,53.4z"/>
	<path class="st0" d="M70,50.3V28.5h-9v-9.7h9V7.6L81.5,5v13.8H94v9.7H81.5V48c0,2.1,0.4,3.5,1.3,4.4c0.9,0.8,2.5,1.3,4.7,1.3
		c1.1,0,2.1-0.1,3-0.2c1-0.1,2-0.4,3.1-0.8V62c-1.2,0.4-2.7,0.7-4.5,1c-1.7,0.3-3.2,0.4-4.5,0.4c-4.9,0-8.6-1.1-11.1-3.3
		C71.2,57.8,70,54.6,70,50.3z"/>
	<path class="st0" d="M94.5,40.8c0-3.2,0.6-6.2,1.8-9c1.2-2.8,2.9-5.2,5-7.2c2.1-2.1,4.6-3.7,7.5-4.8c2.9-1.2,5.9-1.8,9.2-1.8
		c3.3,0,6.3,0.6,9.2,1.8c2.9,1.2,5.4,2.8,7.5,4.8c2.1,2.1,3.8,4.5,5,7.2c1.2,2.8,1.8,5.8,1.8,9c0,3.2-0.6,6.2-1.8,9
		c-1.2,2.8-2.9,5.2-5,7.2c-2.1,2-4.6,3.6-7.5,4.8c-2.9,1.2-5.9,1.8-9.2,1.8c-3.3,0-6.3-0.6-9.2-1.8c-2.9-1.2-5.4-2.8-7.5-4.8
		c-2.1-2-3.8-4.4-5-7.2C95.1,47,94.5,44,94.5,40.8z M117.9,53.5c3.4,0,6.2-1.2,8.6-3.7c2.4-2.5,3.5-5.5,3.5-9c0-3.6-1.2-6.6-3.5-9.1
		c-2.4-2.5-5.2-3.7-8.6-3.7c-3.4,0-6.2,1.2-8.6,3.7c-2.4,2.5-3.5,5.5-3.5,9.1c0,3.5,1.2,6.5,3.5,9C111.6,52.3,114.5,53.5,117.9,53.5
		z"/>
	<path class="st0" d="M145.4,62.7V18.8h11.5v4.8c1.4-1.9,3.1-3.4,5.1-4.3c2-1,4.2-1.5,6.6-1.5c1.1,0.1,2.1,0.2,2.8,0.3
		c0.8,0.1,1.4,0.4,2,0.7v10.1c-0.8-0.4-1.8-0.7-2.8-0.9c-1-0.2-2.1-0.3-3.1-0.3c-2.2,0-4.3,0.6-6.2,1.7c-1.9,1.1-3.4,2.8-4.4,4.9
		v28.4H145.4z"/>
	<path class="st0" d="M214.8,57.2c-2.7,2.2-5.5,3.8-8.3,4.8c-2.8,1-6,1.5-9.5,1.5c-3.3,0-6.4-0.6-9.3-1.8c-2.9-1.2-5.4-2.8-7.5-4.8
		c-2.1-2-3.8-4.4-5-7.2c-1.2-2.8-1.8-5.8-1.8-9c0-3.1,0.6-6.1,1.7-8.9c1.2-2.8,2.7-5.2,4.8-7.3c2-2.1,4.4-3.7,7.2-4.8
		c2.8-1.2,5.7-1.8,8.9-1.8c3.1,0,6,0.6,8.6,1.8c2.7,1.2,5,2.9,6.9,4.9c1.9,2.1,3.5,4.6,4.6,7.5c1.1,2.9,1.6,6,1.6,9.4v3H185
		c0.8,2.8,2.3,5,4.6,6.7c2.2,1.7,4.9,2.5,7.9,2.5c1.9,0,3.7-0.3,5.4-0.9c1.7-0.6,3.1-1.5,4.3-2.6L214.8,57.2z M195.7,27.6
		c-2.6,0-4.9,0.8-6.8,2.4c-1.9,1.6-3.2,3.8-4,6.4h21.5c-0.7-2.6-2.1-4.7-4-6.4C200.5,28.4,198.3,27.6,195.7,27.6z"/>
	<path class="st0" d="M221.9,62.7V18.8h11.5v3.3c1.6-1.3,3.3-2.4,5.2-3.1c1.9-0.7,4-1.1,6.2-1.1c2.8,0,5.4,0.6,7.6,1.7
		c2.3,1.2,4.1,2.8,5.6,4.8c1.7-2.1,3.8-3.8,6.3-4.9c2.5-1.1,5.2-1.7,8.2-1.7c4.9,0,8.9,1.6,12.1,4.9c3.1,3.3,4.7,7.4,4.7,12.6v27.3
		h-11.5V37.1c0-2.8-0.7-5-2.2-6.7c-1.5-1.7-3.5-2.5-6-2.5c-1.7,0-3.3,0.4-4.8,1.1c-1.4,0.8-2.7,1.8-3.7,3.2c0.1,0.5,0.1,1,0.2,1.5
		c0.1,0.5,0.1,1,0.1,1.6v27.3h-11.5V37.1c0-2.8-0.7-5-2.2-6.7c-1.5-1.7-3.5-2.5-6-2.5c-1.7,0-3.3,0.3-4.6,1c-1.3,0.7-2.5,1.7-3.5,3
		v30.9H221.9z"/>
	<path class="st0" d="M301.2,13.6c-1.8,0-3.3-0.6-4.6-1.9c-1.3-1.3-1.9-2.8-1.9-4.6c0-1.8,0.6-3.3,1.9-4.6c1.3-1.3,2.8-1.9,4.6-1.9
		c1.8,0,3.3,0.6,4.6,1.9c1.3,1.3,1.9,2.8,1.9,4.6c0,1.8-0.6,3.3-1.9,4.6C304.5,12.9,303,13.6,301.2,13.6z M307,18.8v43.9h-11.5V18.8
		H307z"/>
	<path class="st0" d="M327.1,63.5c-4.7,0-8.6-1.2-11.5-3.8c-3-2.5-4.5-5.7-4.5-9.7c0-4.2,1.6-7.4,4.8-9.8c3.2-2.4,7.6-3.5,13.2-3.5
		c1.8,0,3.6,0.1,5.4,0.4c1.8,0.3,3.6,0.7,5.3,1.3v-3.1c0-2.5-0.8-4.4-2.4-5.7c-1.6-1.3-3.9-1.9-6.9-1.9c-1.9,0-3.9,0.3-6,0.9
		c-2.2,0.6-4.6,1.5-7.4,2.7l-4.2-8.5c3.4-1.6,6.8-2.8,10-3.5c3.2-0.8,6.4-1.2,9.6-1.2c5.9,0,10.5,1.4,13.8,4.3
		c3.3,2.8,4.9,6.8,4.9,12v28.5h-11.4v-3c-1.9,1.3-3.8,2.2-5.9,2.9C331.9,63.2,329.6,63.5,327.1,63.5z M322.1,49.7c0,1.7,0.7,3,2.2,4
		c1.5,1,3.4,1.5,5.8,1.5c1.9,0,3.7-0.2,5.3-0.7c1.6-0.5,3.1-1.2,4.4-2.1v-6.6c-1.4-0.6-2.9-1-4.4-1.2c-1.5-0.3-3.2-0.4-4.8-0.4
		c-2.6,0-4.7,0.5-6.2,1.5S322.1,48,322.1,49.7z"/>
</g>
</svg>
